<?xml version="1.0" encoding="UTF-8" standalone="no"?>
<!DOCTYPE svg PUBLIC "-//W3C//DTD SVG 1.1//EN" "http://www.w3.org/Graphics/SVG/1.1/DTD/svg11.dtd">
<!-- Created with Vectornator (http://vectornator.io/) -->
<svg height="100%" stroke-miterlimit="10" style="fill-rule:nonzero;clip-rule:evenodd;stroke-linecap:round;stroke-linejoin:round;" version="1.1" viewBox="0 0 24 24" width="100%" xml:space="preserve" xmlns="http://www.w3.org/2000/svg" xmlns:vectornator="http://vectornator.io" xmlns:xlink="http://www.w3.org/1999/xlink">
<defs>
<linearGradient gradientTransform="matrix(1.00992 -0.305277 0.305277 1.00992 -2.30641 -3.53408)" gradientUnits="userSpaceOnUse" id="LinearGradient" x1="7.73472" x2="20.4272" y1="22.7478" y2="6.87532">
<stop offset="0.0764463" stop-color="#31652a"/>
<stop offset="0.272727" stop-color="#3f942c"/>
<stop offset="0.365702" stop-color="#42b427"/>
<stop offset="0.615702" stop-color="#57d430"/>
</linearGradient>
</defs>
<g id="Capa-1" vectornator:layerName="Capa 1"/>
<g id="Untitled" vectornator:layerName="Untitled">
<path d="M15.0821 20.914L8.94093 22.7704L3.34846 4.26947L6.27713 3.38419C6.70719 3.2542 7.15424 3.1261 7.6183 2.99991C8.08236 2.87371 8.52966 2.76197 8.96022 2.66467C9.39077 2.56738 9.78242 2.48889 10.1352 2.4292C10.4879 2.3695 10.768 2.34116 10.9754 2.34417C12.1639 2.33222 13.2205 2.61359 14.1452 3.1883C15.0535 3.7398 15.6779 4.57892 16.0185 5.70566C16.2265 6.39375 16.2456 7.07792 16.0758 7.75819C15.9833 8.41506 15.687 9.09603 15.1867 9.80109C17.6291 10.1798 19.1728 11.4357 19.8175 13.5688C20.1477 14.6611 20.1714 15.6866 19.8885 16.6451C19.5662 17.6906 19.0771 18.5565 18.4209 19.243C17.6744 19.9098 16.5615 20.4669 15.0821 20.914ZM13.1998 17.808C14.6706 17.3634 15.6206 16.8885 16.0499 16.3833C16.4524 15.8204 16.5509 15.1993 16.3455 14.5198C16.1141 13.7543 15.6349 13.2092 14.9078 12.8845C14.1335 12.6211 13.0626 12.696 11.695 13.1094L10.0178 13.6164L11.4452 18.3384L13.1998 17.808ZM10.7591 10.013C11.602 9.75823 12.2002 9.36151 12.5536 8.82287C12.8375 8.33342 12.8871 7.78336 12.7025 7.17269C12.5153 6.55341 12.1797 6.15735 11.6956 5.98451C11.1702 5.76787 10.5161 5.77784 9.73341 6.01443L7.88848 6.57212L9.08185 10.52L10.7591 10.013Z" fill="#1f1135" fill-rule="evenodd" opacity="1" stroke="none"/>
<path d="M15.6998 19.7998L9.55865 21.6562L3.96619 3.15527L6.89486 2.26999C7.32491 2.14 7.77197 2.0119 8.23603 1.8857C8.70008 1.75951 9.14739 1.64777 9.57794 1.55047C10.0085 1.45318 10.4001 1.37469 10.7529 1.31499C11.1056 1.2553 11.3857 1.22696 11.5931 1.22997C12.7817 1.21802 13.8383 1.49939 14.763 2.0741C15.6712 2.6256 16.2957 3.46472 16.6363 4.59146C16.8443 5.27955 16.8633 5.96372 16.6935 6.64399C16.601 7.30086 16.3047 7.98183 15.8044 8.68689C18.2469 9.06563 19.7905 10.3215 20.4353 12.4546C20.7655 13.5469 20.7891 14.5724 20.5062 15.5309C20.184 16.5764 19.6948 17.4423 19.0387 18.1288C18.2922 18.7956 17.1792 19.3527 15.6998 19.7998ZM13.8175 16.6938C15.2883 16.2492 16.2384 15.7743 16.6676 15.2691C17.0701 14.7062 17.1686 14.0851 16.9632 13.4056C16.7318 12.6401 16.2526 12.095 15.5255 11.7703C14.7513 11.5069 13.6803 11.5818 12.3128 11.9952L10.6356 12.5022L12.0629 17.2242L13.8175 16.6938ZM11.3768 8.89883C12.2197 8.64403 12.8179 8.24731 13.1713 7.70867C13.4552 7.21922 13.5048 6.66916 13.3202 6.05849C13.133 5.43921 12.7974 5.04315 12.3134 4.87031C11.7879 4.65366 11.1338 4.66364 10.3511 4.90023L8.50621 5.45792L9.69958 9.40582L11.3768 8.89883Z" fill="url(#LinearGradient)" fill-rule="evenodd" opacity="1" stroke="none"/>
</g>
</svg>
