<?xml version="1.0" encoding="UTF-8" standalone="no"?>
<!DOCTYPE svg PUBLIC "-//W3C//DTD SVG 1.1//EN" "http://www.w3.org/Graphics/SVG/1.1/DTD/svg11.dtd"
[
<!ATTLIST g
  xmlns:vectornator CDATA #FIXED "http://vectornator.io"
  vectornator:layerName CDATA #IMPLIED >
<!ATTLIST g
  xmlns:vectornator CDATA #FIXED "http://vectornator.io"
  vectornator:mask CDATA #IMPLIED >
<!ATTLIST text
  xmlns:vectornator CDATA #FIXED "http://vectornator.io"
  vectornator:width CDATA #IMPLIED >

<!ATTLIST path
  xmlns:vectornator CDATA #FIXED "http://vectornator.io"
  vectornator:blendMode CDATA #IMPLIED >
<!ATTLIST path
  xmlns:vectornator CDATA #FIXED "http://vectornator.io"
  vectornator:shadowColor CDATA #IMPLIED >
<!ATTLIST path
  xmlns:vectornator CDATA #FIXED "http://vectornator.io"
  vectornator:shadowOpacity CDATA #IMPLIED >
<!ATTLIST path
  xmlns:vectornator CDATA #FIXED "http://vectornator.io"
  vectornator:shadowRadius CDATA #IMPLIED >
<!ATTLIST path
  xmlns:vectornator CDATA #FIXED "http://vectornator.io"
  vectornator:shadowOffset CDATA #IMPLIED >
<!ATTLIST path
  xmlns:vectornator CDATA #FIXED "http://vectornator.io"
  vectornator:shadowAngle CDATA #IMPLIED >

<!ATTLIST image
  xmlns:vectornator CDATA #FIXED "http://vectornator.io"
  vectornator:blendMode CDATA #IMPLIED >
<!ATTLIST image
  xmlns:vectornator CDATA #FIXED "http://vectornator.io"
  vectornator:shadowColor CDATA #IMPLIED >
<!ATTLIST image
  xmlns:vectornator CDATA #FIXED "http://vectornator.io"
  vectornator:shadowOpacity CDATA #IMPLIED >
<!ATTLIST image
  xmlns:vectornator CDATA #FIXED "http://vectornator.io"
  vectornator:shadowRadius CDATA #IMPLIED >
<!ATTLIST image
  xmlns:vectornator CDATA #FIXED "http://vectornator.io"
  vectornator:shadowOffset CDATA #IMPLIED >
<!ATTLIST image
  xmlns:vectornator CDATA #FIXED "http://vectornator.io"
  vectornator:shadowAngle CDATA #IMPLIED >

<!ATTLIST g
  xmlns:vectornator CDATA #FIXED "http://vectornator.io"
  vectornator:blendMode CDATA #IMPLIED >
<!ATTLIST g
  xmlns:vectornator CDATA #FIXED "http://vectornator.io"
  vectornator:shadowColor CDATA #IMPLIED >
<!ATTLIST g
  xmlns:vectornator CDATA #FIXED "http://vectornator.io"
  vectornator:shadowOpacity CDATA #IMPLIED >
<!ATTLIST g
  xmlns:vectornator CDATA #FIXED "http://vectornator.io"
  vectornator:shadowRadius CDATA #IMPLIED >
<!ATTLIST g
  xmlns:vectornator CDATA #FIXED "http://vectornator.io"
  vectornator:shadowOffset CDATA #IMPLIED >
<!ATTLIST g
  xmlns:vectornator CDATA #FIXED "http://vectornator.io"
  vectornator:shadowAngle CDATA #IMPLIED >

<!ENTITY % SVG.filter.extra.content  "| feDropShadow" >
<!ELEMENT feDropShadow EMPTY>
<!ATTLIST feDropShadow
  xmlns:svg CDATA #FIXED "http://www.w3.org/Graphics/SVG/1.1/DTD/svg11.dtd"
  dx CDATA #IMPLIED>
<!ATTLIST feDropShadow
  xmlns:svg CDATA #FIXED "http://www.w3.org/Graphics/SVG/1.1/DTD/svg11.dtd"
  dy CDATA #IMPLIED>
<!ATTLIST feDropShadow
  xmlns:svg CDATA #FIXED "http://www.w3.org/Graphics/SVG/1.1/DTD/svg11.dtd"
  stdDeviation CDATA #IMPLIED>
<!ATTLIST feDropShadow
  xmlns:svg CDATA #FIXED "http://www.w3.org/Graphics/SVG/1.1/DTD/svg11.dtd"
  flood-opacity CDATA #IMPLIED>
<!ATTLIST feDropShadow
  xmlns:svg CDATA #FIXED "http://www.w3.org/Graphics/SVG/1.1/DTD/svg11.dtd"
  in CDATA #IMPLIED>
<!ATTLIST feDropShadow
  xmlns:svg CDATA #FIXED "http://www.w3.org/Graphics/SVG/1.1/DTD/svg11.dtd"
  result CDATA #IMPLIED>
<!ATTLIST feDropShadow
  xmlns:svg CDATA #FIXED "http://www.w3.org/Graphics/SVG/1.1/DTD/svg11.dtd"
  flood-color CDATA #IMPLIED>
]
>
<!-- Created with Vectornator (http://vectornator.io/) -->
<svg height="100%" stroke-miterlimit="10" style="fill-rule:nonzero;clip-rule:evenodd;stroke-linecap:round;stroke-linejoin:round;" version="1.1" viewBox="0 0 1261.58 255.15" width="100%" xml:space="preserve" xmlns="http://www.w3.org/2000/svg" xmlns:vectornator="http://vectornator.io" xmlns:xlink="http://www.w3.org/1999/xlink">
<defs>
<clipPath id="TextBounds">
<rect height="254.32" width="1263.07" x="1.5259" y="-1.615"/>
</clipPath>
<linearGradient gradientTransform="matrix(1 2.4938e-07 -2.4938e-07 1 -495.806 -316.527)" gradientUnits="userSpaceOnUse" id="LinearGradient" x1="1234.81" x2="1233.7" y1="481.024" y2="317.405">
<stop offset="0.0764463" stop-color="#31652a"/>
<stop offset="0.272727" stop-color="#3f942c"/>
<stop offset="0.365702" stop-color="#42b427"/>
<stop offset="0.367769" stop-color="#43b427"/>
<stop offset="0.615702" stop-color="#57d430"/>
</linearGradient>
<filter color-interpolation-filters="sRGB" filterUnits="userSpaceOnUse" height="174.043" id="Filter" width="1266.09" x="-6.97413" y="51.0217">
<feDropShadow dx="-3.67321e-05" dy="10" flood-color="#1b2c1d" flood-opacity="1" in="SourceGraphic" result="Shadow" stdDeviation="5"/>
</filter>
</defs>
<clipPath id="ArtboardFrame">
<rect height="255.15" width="1261.58" x="0" y="0"/>
</clipPath>
<g clip-path="url(#ArtboardFrame)" id="Capa-1" vectornator:layerName="Capa 1">
<g fill="url(#LinearGradient)" filter="url(#Filter)" stroke="none" vectornator:shadowAngle="1.5708" vectornator:shadowColor="#1b2c1d" vectornator:shadowOffset="10" vectornator:shadowOpacity="1" vectornator:shadowRadius="10">
<path clip-path="url(#TextBounds)" d="M80.0474 178.639C84.201 178.639 88.1936 178.156 92.0249 177.189C95.8563 176.222 99.4908 174.843 102.928 173.053C106.366 171.263 109.553 169.132 112.489 166.661C115.425 164.191 118.039 161.416 120.331 158.336L140.204 175.524C136.695 179.964 132.738 184.01 128.334 187.662C123.929 191.315 119.167 194.43 114.046 197.008C108.926 199.586 103.519 201.574 97.8257 202.97C92.1324 204.366 86.2062 205.065 80.0474 205.065C72.9576 205.065 66.1363 204.152 59.5835 202.325C53.0308 200.499 46.8898 197.903 41.1607 194.537C35.4315 191.171 30.2395 187.161 25.5845 182.506C20.9296 177.851 16.9191 172.659 13.5533 166.93C10.1874 161.201 7.59135 155.06 5.76518 148.507C3.93901 141.954 3.02593 135.133 3.02593 128.043C3.02593 120.953 3.93902 114.132 5.76519 107.579C7.59137 101.027 10.1874 94.8857 13.5533 89.1565C16.9192 83.4273 20.9296 78.2353 25.5845 73.5803C30.2395 68.9254 35.4315 64.915 41.1607 61.5491C46.8899 58.1832 53.0308 55.5872 59.5836 53.761C66.1363 51.9348 72.9576 51.0217 80.0474 51.0217C86.2063 51.0217 92.1324 51.72 97.8258 53.1165C103.519 54.513 108.926 56.5003 114.046 59.0784C119.167 61.6565 123.929 64.7538 128.334 68.3704C132.738 71.9869 136.695 76.0152 140.204 80.4553L120.331 97.7503C118.039 94.6708 115.425 91.8779 112.489 89.3714C109.553 86.8648 106.366 84.7343 102.928 82.9798C99.4908 81.2252 95.8563 79.8645 92.025 78.8977C88.1936 77.9309 84.2011 77.4475 80.0474 77.4475C73.1008 77.4475 66.5481 78.7724 60.3892 81.4221C54.2304 84.0719 48.8593 87.6884 44.2759 92.2717C39.6926 96.8551 36.0761 102.208 33.4263 108.331C30.7766 114.454 29.4517 121.025 29.4517 128.043C29.4517 134.99 30.7766 141.543 33.4263 147.701C36.0761 153.86 39.6926 159.231 44.2759 163.815C48.8593 168.398 54.2303 172.015 60.3892 174.664C66.5481 177.314 73.1008 178.639 80.0474 178.639Z" fill-rule="evenodd"/>
<path clip-path="url(#TextBounds)" d="M249.881 51.0218L249.881 79.7034L186.073 79.7034L186.073 114.078L249.881 114.078L249.881 142.008L186.073 142.008L186.073 176.383L249.881 176.383L249.881 205.065L157.391 205.065L157.391 51.0218L249.881 51.0218Z" fill-rule="evenodd"/>
<path clip-path="url(#TextBounds)" d="M319.061 205.065C298.436 205.065 282.752 194.358 272.01 172.946L295.965 158.659C302.984 171.836 310.933 178.424 319.813 178.424C324.468 178.424 328.55 177.063 332.059 174.342C335.21 171.406 336.786 168.219 336.786 164.782C336.786 161.416 335.676 158.014 333.456 154.576C332.023 152.929 329.946 150.87 327.225 148.4C324.504 145.929 321.102 142.975 317.02 139.537C309.214 133.02 302.751 127.273 297.63 122.296C292.51 117.319 288.768 113.076 286.405 109.567C281.392 102.405 278.885 95.387 278.885 88.512C278.885 78.1995 282.753 69.3551 290.487 61.9788C298.508 54.6741 308.032 51.0218 319.061 51.0218C326.652 51.0218 333.706 52.848 340.223 56.5003C343.589 58.1475 347.062 60.5107 350.643 63.5902C354.224 66.6696 358.019 70.4294 362.03 74.8695L340.868 93.2386C333.778 83.2842 326.509 78.307 319.061 78.307C314.907 78.307 311.971 79.2021 310.253 80.9925C307.961 82.7829 306.815 85.0745 306.815 87.8675C306.815 90.0159 307.495 92.236 308.856 94.5277C310.217 95.9599 312.598 98.1979 316 101.242C319.401 104.285 323.859 108.206 329.374 113.004C335.819 118.375 340.724 122.636 344.09 125.787C346.31 127.793 347.958 129.225 349.032 130.084C359.058 139.752 364.071 150.853 364.071 163.385C364.071 175.703 359.953 185.729 351.717 193.463C343.553 201.198 332.668 205.065 319.061 205.065Z" fill-rule="evenodd"/>
<path clip-path="url(#TextBounds)" d="M461.717 51.0218L462.469 53.1703L447.43 91.9496L426.59 144.909L468.163 144.909L458.172 119.879L473.211 81.1L521.229 205.065L490.292 205.065L478.905 173.483L415.848 173.483L402.958 205.065L372.879 205.065L432.284 51.0218L461.717 51.0218Z" fill-rule="evenodd"/>
<path clip-path="url(#TextBounds)" d="M644.979 205.065L613.397 205.065L585.36 152.428L568.28 152.428L568.28 205.065L538.846 205.065L538.846 51.0219L595.35 51.0219C609.1 51.0219 620.809 55.8559 630.477 65.5238C640.145 75.1918 644.979 86.9008 644.979 100.651L644.979 102.155C644.979 122.995 634.953 138.356 614.901 148.239L644.979 205.065ZM592.45 123.746C598.322 123.746 603.407 121.526 607.704 117.086C612.001 112.789 614.149 107.526 614.149 101.295C614.149 95.2081 612.001 90.1234 607.704 86.0414C603.478 81.8878 598.394 79.8109 592.45 79.8109L568.28 79.8109L568.28 123.746L592.45 123.746Z" fill-rule="evenodd"/>
<path clip-path="url(#TextBounds)" d="M877.01 125.143C877.082 125.644 877.154 126.128 877.225 126.593C877.297 127.059 877.333 127.542 877.333 128.043C877.333 135.133 876.419 141.955 874.593 148.507C872.767 155.06 870.171 161.201 866.805 166.93C863.439 172.659 859.429 177.851 854.774 182.506C850.119 187.161 844.927 191.172 839.198 194.538C833.469 197.903 827.328 200.499 820.775 202.326C814.222 204.152 807.401 205.065 800.311 205.065C793.221 205.065 786.4 204.152 779.847 202.326C773.294 200.499 767.154 197.903 761.424 194.538C755.695 191.172 750.503 187.161 745.848 182.506C741.193 177.851 737.183 172.659 733.817 166.93C730.451 161.201 727.855 155.06 726.029 148.507C724.203 141.955 723.29 135.133 723.29 128.043C723.29 120.954 724.203 114.132 726.029 107.58C727.855 101.027 730.451 94.8858 733.817 89.1567C737.183 83.4275 741.193 78.2354 745.848 73.5805C750.503 68.9256 755.695 64.9151 761.424 61.5493C767.154 58.1834 773.295 55.5873 779.847 53.7612C786.4 51.935 793.221 51.0219 800.311 51.0219C811.125 51.0219 821.223 53.0629 830.604 57.145C839.986 61.227 848.185 66.8488 855.204 74.0102L852.518 76.3735L835.116 91.52C830.532 87.1515 825.287 83.714 819.378 81.2075C813.47 78.701 807.114 77.4477 800.311 77.4477C793.364 77.4477 786.812 78.7726 780.653 81.4223C774.494 84.072 769.123 87.6886 764.54 92.2719C759.956 96.8552 756.34 102.208 753.69 108.331C751.04 114.455 749.715 121.025 749.715 128.043C749.715 134.99 751.04 141.543 753.69 147.702C756.34 153.86 759.956 159.232 764.54 163.815C769.123 168.398 774.494 172.015 780.653 174.664C786.812 177.314 793.364 178.639 800.311 178.639C805.109 178.639 809.71 177.977 814.115 176.652C818.519 175.327 822.637 173.483 826.468 171.12C830.3 168.756 833.737 165.928 836.781 162.633C839.824 159.339 842.42 155.722 844.569 151.784L800.311 151.784L800.311 141.364L800.311 125.143L863.26 125.143L877.01 125.143Z" fill-rule="evenodd"/>
<path clip-path="url(#TextBounds)" d="M944.901 205.065L893.768 205.065L893.768 51.0219L918.153 51.0219C921.734 51.022 925.44 51.0757 929.271 51.1831C933.102 51.2905 936.773 51.4695 940.282 51.7202C943.791 51.9708 946.96 52.2752 949.789 52.6333C952.617 52.9914 954.82 53.421 956.395 53.9223C965.49 56.5721 972.902 61.1554 978.631 67.6724C984.289 73.9744 987.118 81.8162 987.118 91.1977C987.118 96.9269 985.685 102.191 982.821 106.989C980.601 111.787 976.769 116.299 971.327 120.524C989.087 129.046 997.967 142.187 997.967 159.948C997.967 169.043 995.783 176.92 991.415 183.581C986.545 190.814 980.816 196.292 974.227 200.016C966.994 203.382 957.219 205.065 944.901 205.065ZM937.704 177.028C949.95 177.028 958.293 175.596 962.733 172.731C967.101 169.365 969.286 164.853 969.286 159.196C969.286 152.822 966.887 147.558 962.088 143.405C956.789 139.609 948.446 137.711 937.059 137.711L923.094 137.711L923.094 177.028L937.704 177.028ZM937.059 111.93C944.077 111.93 949.556 110.283 953.495 106.989C956.789 103.909 958.436 99.8273 958.436 94.7427C958.436 89.5864 956.789 85.7908 953.495 83.3559C949.986 80.4914 944.973 79.0591 938.456 79.0591L923.094 79.0591L923.094 111.93L937.059 111.93Z" fill-rule="evenodd"/>
<path clip-path="url(#TextBounds)" d="M1124.4 51.022L1071.44 128.366L1124.4 205.065L1089.38 205.065L1042.01 136.315L1042.01 205.065L1012.68 205.065L1012.68 51.022L1042.01 51.022L1042.01 119.879L1089.38 51.022L1124.4 51.022Z" fill-rule="evenodd"/>
<path clip-path="url(#TextBounds)" d="M1249.12 205.065L1217.54 205.065L1189.5 152.428L1172.42 152.428L1172.42 205.065L1142.99 205.065L1142.99 51.022L1199.49 51.022C1213.24 51.022 1224.95 55.856 1234.62 65.524C1244.29 75.192 1249.12 86.9009 1249.12 100.651L1249.12 102.155C1249.12 122.995 1239.09 138.356 1219.04 148.239L1249.12 205.065ZM1196.59 123.747C1202.46 123.747 1207.55 121.527 1211.84 117.086C1216.14 112.79 1218.29 107.526 1218.29 101.295C1218.29 95.2082 1216.14 90.1236 1211.84 86.0416C1207.62 81.8879 1202.53 79.8111 1196.59 79.8111L1172.42 79.8111L1172.42 123.747L1196.59 123.747Z" fill-rule="evenodd"/>
</g>
</g>
</svg>
