<?xml version="1.0" encoding="utf-8"?>
<!-- Generator: Adobe Illustrator 26.1.0, SVG Export Plug-In . SVG Version: 6.00 Build 0)  -->
<svg version="1.1" id="Capa_1" xmlns="http://www.w3.org/2000/svg" xmlns:xlink="http://www.w3.org/1999/xlink" x="0px" y="0px"
	 viewBox="0 0 2000 3000" style="enable-background:new 0 0 2000 3000;" xml:space="preserve">
<style type="text/css">
	.st0{fill:none;stroke:#000000;stroke-miterlimit:10;}
	.st1{opacity:0.5;}
	.st2{fill:none;stroke:#6CB52D;stroke-width:5;stroke-miterlimit:10;}
</style>
<g>
	<rect x="2893.67" y="1058.33" class="st0" width="0" height="3.33"/>
	<line class="st0" x1="2893.67" y1="1058.59" x2="2893.67" y2="1058.59"/>
	<line class="st0" x1="2893.67" y1="1058.85" x2="2893.67" y2="1058.85"/>
	<line class="st0" x1="2893.67" y1="1059.1" x2="2893.67" y2="1059.1"/>
	<line class="st0" x1="2893.67" y1="1059.36" x2="2893.67" y2="1059.36"/>
	<line class="st0" x1="2893.67" y1="1059.62" x2="2893.67" y2="1059.62"/>
	<line class="st0" x1="2893.67" y1="1059.87" x2="2893.67" y2="1059.87"/>
	<line class="st0" x1="2893.67" y1="1060.13" x2="2893.67" y2="1060.13"/>
	<line class="st0" x1="2893.67" y1="1060.38" x2="2893.67" y2="1060.38"/>
	<line class="st0" x1="2893.67" y1="1060.64" x2="2893.67" y2="1060.64"/>
	<line class="st0" x1="2893.67" y1="1060.9" x2="2893.67" y2="1060.9"/>
	<line class="st0" x1="2893.67" y1="1061.15" x2="2893.67" y2="1061.15"/>
	<line class="st0" x1="2893.67" y1="1061.41" x2="2893.67" y2="1061.41"/>
	<line class="st0" x1="2893.67" y1="1061.67" x2="2893.67" y2="1058.33"/>
	<line class="st0" x1="2893.67" y1="1061.67" x2="2893.67" y2="1058.33"/>
	<line class="st0" x1="2893.67" y1="1061.67" x2="2893.67" y2="1058.33"/>
	<line class="st0" x1="2893.67" y1="1061.67" x2="2893.67" y2="1058.33"/>
	<line class="st0" x1="2893.67" y1="1061.67" x2="2893.67" y2="1058.33"/>
	<line class="st0" x1="2893.67" y1="1061.67" x2="2893.67" y2="1058.33"/>
	<line class="st0" x1="2893.67" y1="1061.67" x2="2893.67" y2="1058.33"/>
	<line class="st0" x1="2893.67" y1="1061.67" x2="2893.67" y2="1058.33"/>
	<line class="st0" x1="2893.67" y1="1061.67" x2="2893.67" y2="1058.33"/>
	<line class="st0" x1="2893.67" y1="1061.67" x2="2893.67" y2="1058.33"/>
	<line class="st0" x1="2893.67" y1="1061.67" x2="2893.67" y2="1058.33"/>
	<line class="st0" x1="2893.67" y1="1061.67" x2="2893.67" y2="1058.33"/>
	<line class="st0" x1="2893.67" y1="1061.67" x2="2893.67" y2="1058.33"/>
	<line class="st0" x1="2893.67" y1="1061.67" x2="2893.67" y2="1058.33"/>
	<line class="st0" x1="2893.67" y1="1061.67" x2="2893.67" y2="1058.33"/>
	<line class="st0" x1="2893.67" y1="1061.67" x2="2893.67" y2="1058.33"/>
	<line class="st0" x1="2893.67" y1="1061.67" x2="2893.67" y2="1058.33"/>
	<line class="st0" x1="2893.67" y1="1061.67" x2="2893.67" y2="1058.33"/>
</g>
<g class="st1">
	<rect class="st2" width="2000" height="3000"/>
	<line class="st2" x1="0" y1="166.67" x2="2000" y2="166.67"/>
	<line class="st2" x1="0" y1="333.33" x2="2000" y2="333.33"/>
	<line class="st2" x1="0" y1="500" x2="2000" y2="500"/>
	<line class="st2" x1="0" y1="666.67" x2="2000" y2="666.67"/>
	<line class="st2" x1="0" y1="833.33" x2="2000" y2="833.33"/>
	<line class="st2" x1="0" y1="1000" x2="2000" y2="1000"/>
	<line class="st2" x1="0" y1="1166.67" x2="2000" y2="1166.67"/>
	<line class="st2" x1="0" y1="1333.33" x2="2000" y2="1333.33"/>
	<line class="st2" x1="0" y1="1500" x2="2000" y2="1500"/>
	<line class="st2" x1="0" y1="1666.67" x2="2000" y2="1666.67"/>
	<line class="st2" x1="0" y1="1833.33" x2="2000" y2="1833.33"/>
	<line class="st2" x1="0" y1="2000" x2="2000" y2="2000"/>
	<line class="st2" x1="0" y1="2166.67" x2="2000" y2="2166.67"/>
	<line class="st2" x1="0" y1="2333.33" x2="2000" y2="2333.33"/>
	<line class="st2" x1="0" y1="2500" x2="2000" y2="2500"/>
	<line class="st2" x1="0" y1="2666.67" x2="2000" y2="2666.67"/>
	<line class="st2" x1="0" y1="2833.33" x2="2000" y2="2833.33"/>
	<line class="st2" x1="1833.33" y1="3000" x2="1833.33" y2="0"/>
	<line class="st2" x1="1666.67" y1="3000" x2="1666.67" y2="0"/>
	<line class="st2" x1="1500" y1="3000" x2="1500" y2="0"/>
	<line class="st2" x1="1333.33" y1="3000" x2="1333.33" y2="0"/>
	<line class="st2" x1="1166.67" y1="3000" x2="1166.67" y2="0"/>
	<line class="st2" x1="1000" y1="3000" x2="1000" y2="0"/>
	<line class="st2" x1="833.33" y1="3000" x2="833.33" y2="0"/>
	<line class="st2" x1="666.67" y1="3000" x2="666.67" y2="0"/>
	<line class="st2" x1="500" y1="3000" x2="500" y2="0"/>
	<line class="st2" x1="333.33" y1="3000" x2="333.33" y2="0"/>
	<line class="st2" x1="166.67" y1="3000" x2="166.67" y2="0"/>
</g>
</svg>
